<svg xmlns="http://www.w3.org/2000/svg" width="191.308" height="235.617" viewBox="0 0 191.308 235.617">
  <path id="Path_29259" data-name="Path 29259" d="M871.067,50.045c-.1-.4-1.233-.514-.426-1.145,1.9-1.482,2.985-3.656,4.648-5.324.612-.614,1.12-1.4,2.112-1.575a1.227,1.227,0,0,0,.816-.716c.467-1.809,1.967-2.593,3.433-3.148a17.154,17.154,0,0,0,2.362-1.568c1.972-1.111,4.184-1.178,6.235-1.867,2.747-.92,5.775-.689,8.4-2.078,1.752.313,3.318-.791,5.054-.65,2.291.186,4.637-.4,6.885.569a4.949,4.949,0,0,0,1.8.043c4,0,8,.045,12.007-.016a20.228,20.228,0,0,1,7.348,1.145c1.725.621,3.633.882,5.455,1.4a23.042,23.042,0,0,1,6.672,3.551c.9.616,1.818,1.251,2.724,1.827a3.845,3.845,0,0,0,3.5.075,2.06,2.06,0,0,1,2.427.206,4.732,4.732,0,0,0,3.166.737,5,5,0,0,1,2.606.435c1.113.607,2.11-.088,2.439-1.414.088-.354-.039-.972.3-1.013,1.466-.179,1.434-1.2,1.527-2.28.131-1.521,1.457-2.058,2.59-2.4a7.178,7.178,0,0,0,4.048-2.57c.911-1.174,2.609-1.809,3.162-3.467a.462.462,0,0,1,.36-.229c1.722-.011,2.951-1.2,4.422-1.813.268-.111.709-.3.834-.186,1.224,1.1,2.6-.17,3.916.265a1.6,1.6,0,0,0,2.01-1.176,3.889,3.889,0,0,1,.857-1.752c1.491-1.668,2.944-3.454,5.639-2.831a12.1,12.1,0,0,0,2.26.027c1.049.034,2.6-.469,3.037.2.721,1.106,1.795,1.906,2.393,3.107a26.511,26.511,0,0,0,2.051,3.062c.535.78,1.138,1.543,1.7,2.269,2.1,2.711,3.882,5.641,6.033,8.324a15,15,0,0,1,3.3,7.7c.188,1.571.134,3.32,1.076,4.87.621,1.02.4,2.443.621,3.667.453,2.509,1.364,5.022.909,7.66a6.044,6.044,0,0,0,0,1.358c.086,1.444.46,1.838,1.931,1.886a24.7,24.7,0,0,0,4.524-.029c2.8-.435,4.549,1.038,5.634,3.186a3.889,3.889,0,0,0,3.5,2.452c-1.1,1.543-1.285,3.225-1.818,4.791a1.536,1.536,0,0,0,.113,1.246,3.719,3.719,0,0,1-.07,3.436,2.151,2.151,0,0,0-.213,1.31c.161,1.788-.791,3.055-1.96,4.3.181.635.8.988,1.235,1.462,1.532,1.677,1.747,2.964.748,4.984-.129.261-.113.68-.433.718-1.945.236-3.1,1.985-4.7,2.581-2.69,1.006-4.712,2.869-6.894,4.478a4.659,4.659,0,0,1-5.43.276c-1.732-.918-2.862-.075-3.955.87a13.988,13.988,0,0,0-2.921,4.326c-.426.816-.7,1.552-1.72,1.824a1.547,1.547,0,0,0-1.172,1.7c.224,2.715-1.718,4.394-3.046,6.346-1.466,2.16-3.057,4.179-3.839,6.785a53.168,53.168,0,0,0-1.419,6.153c-.388,2.2-1.249,4.326-1.256,6.638,0,1.015-2.171,2.908-3.207,2.982-.224.016-.453-.009-.68,0-2.466.1-3.3.956-2.817,3.293a3.051,3.051,0,0,1-.451,2.79,1.493,1.493,0,0,0,.322,2.325,1.634,1.634,0,0,1,.494,2.221,3.114,3.114,0,0,0-.388,2.373c.272,1.571-.736,2.817-.893,4.27-.054.505-.566.843-1.122.99-1.673.446-3.32,1.04-5.018,1.324A2.067,2.067,0,0,0,975,158.954c-.322,1.07-.929,1.328-1.942,1.484-1.416.22-1.564.768-.673,1.906a3.629,3.629,0,0,1,.208,4.168,11.965,11.965,0,0,0-1.747,7.363c.188,1.87-.9,3.594-.648,5.514.109.816-.653,1.339-1.473,1.378a2.084,2.084,0,0,0-2.031,1.7c-.673,1.935-2.536,2.615-4.109,3.579-.179.109-.508.229-.628.143-1.768-1.253-3.4-.088-5.238.286,1.562,2.026-.206,3.4-.977,4.954-.236.476-.977.213-1.491.238-2.033.1-2.411.49-2.43,2.577-.011,1.208.009,2.416-.018,3.624-.027,1.24.084,2.357-1,3.5-.945.995-.637,2.869-.195,4.118.365,1.031-.068,1.337-.487,1.924-1.516,2.13-3.182,4.138-4.524,6.416a4.508,4.508,0,0,0-.369,4.032,1.178,1.178,0,0,1-.351,1.568,39.7,39.7,0,0,1-3.52,3.467c-1.906,1.6-2.584,4.082-4.342,5.779-.333.32-.127.793.292,1.151.621.535,1.129,1.2,1.734,1.754a5.307,5.307,0,0,1,1.761,2.9,3.39,3.39,0,0,0-3,1.555,10.034,10.034,0,0,1-3.341,2.459c-1.675.893-2.611,2.411-3.989,3.515-.7.558-.494,1.283-.138,2.028a4.78,4.78,0,0,1-1.641,5.8,1.234,1.234,0,0,1-.587.276c-2.028-.034-2.269,1.618-2.711,2.964-.56,1.707-1.26,2.18-3.064,2.026a6.289,6.289,0,0,0-2.622.342,6.914,6.914,0,0,1-2.47.12,1.306,1.306,0,0,1-1.3-1.061c-.349-1.634-1.138-3.177-.857-4.947a5.445,5.445,0,0,0-.567-3.463,2.275,2.275,0,0,0-2.04-1.41c-2.343-.17-3.685-1.246-4.134-3.515a3.753,3.753,0,0,0-3.413-3.332,10.161,10.161,0,0,1-3.5-1.727,2.628,2.628,0,0,1-1.213-3.06,4.385,4.385,0,0,0-1.942,4.211c.186,1.736-1.321,2.436-1.611,3.792-.086.4-.623.326-.988.329-2.189.007-4.381.016-6.57,0-1.913-.014-2.105-1.743-2.473-2.919-.356-1.135-.485-1.4-1.573-.777a5.6,5.6,0,0,0-1.8,1.212c-1.541,1.933-3.782,3.069-5.475,4.823-.451.467-.952.351-1.457.381-2.139.125-2.955.616-3.334,2.747-.308,1.745-1.294,3.241-1.534,5-.041.306-.478,1.6-1.342.431-.1-.118-.258-.258-.236-.372.965-4.583,0-9.346,1.294-13.895.5-1.745,1.013-3.495,2.5-4.721a7.893,7.893,0,0,0,1.607-1.376c2.275-3.254,3.533-7.214,1.9-10.6-2.1-4.338-5.573-8.361-10.183-10.083-3.463-1.294-7.574-.866-11.361.138-.82.218-1.784.984-2.43-.1-.539-.9.129-1.727.693-2.448a17.874,17.874,0,0,1,4.073-3.549c2.613-1.8,2.91-2.912,1.675-5.852-.174-.417-.487-.768-.63-1.2a2.477,2.477,0,0,1,2.84-3.366,13.373,13.373,0,0,1,2.361.771,3.024,3.024,0,0,0,3.542-.646,4.078,4.078,0,0,1,3.477-1.26,7.821,7.821,0,0,0,5.974-2.248,52.281,52.281,0,0,1,7.2-5.441,4.418,4.418,0,0,0,1.294-1.283,8.953,8.953,0,0,1,.56-.716,8.9,8.9,0,0,0,.995-1.568c1.285-1.911,3.427-2.128,5.374-2.488a21.887,21.887,0,0,0,6.69-2.618c1.6-.888,2.026-2.139,1.935-4.1-.2-4.365-2.466-8.392-1.879-12.852a2.633,2.633,0,0,0-1.29-2.5,22.471,22.471,0,0,1-2.225-1.541,3.624,3.624,0,0,0-1.552-1.088c-3.925-2.164-8.2-3.619-12.064-5.9a3.52,3.52,0,0,0-2.089-.823,6.66,6.66,0,0,1-.861-.272c-.755-.272-1.555-1.1-2.291-.51-.752.6.195,1.342.333,2.031a2.434,2.434,0,0,1-1.242,2.869,8.351,8.351,0,0,0-2.663,2.4,3.666,3.666,0,0,1-2.269,1.362,22.167,22.167,0,0,1-10.5-.46,4.854,4.854,0,0,1-3.037-2.2,1.305,1.305,0,0,0-.27-.36c-2.584-2-3.6-4.025-2.332-7.64.918-2.611-.639-4.669-3.78-4.147-2.69.446-3.714-.537-3.9-3.27-.073-1.052-.014-2.108-.034-3.162-.061-3.18-.759-3.928-3.955-4.234a5.609,5.609,0,0,1-3.214-1.981,1.664,1.664,0,0,1-.558-1.847c.791-1.7.87-3.671,2.072-5.231a4.06,4.06,0,0,0,.113-5.224c-1.858-2.72-1.391-5.786-.97-8.775a2.849,2.849,0,0,1,2.187-2.389,6.1,6.1,0,0,0,3.472-2.706c3.583-4.877,8.628-6.536,14.493-4.834a11.131,11.131,0,0,0,3.345.528,5.078,5.078,0,0,1,3.758,1.244c1.31,1.185,2.874,1.106,4.492.718,3.569-.859,5.623.947,5.362,4.669-.032.453-.156.9-.193,1.346-.143,1.854.505,2.681,2.364,2.86,1.8.172,3.628-.1,5.41.388a1.013,1.013,0,0,0,1.373-.814c.533-2.373,2.47-3.066,4.4-3.78.467-.236,1.2-.168,1.131-1.006-1.944-1.337-4.322-.929-6.425-1.627a12.821,12.821,0,0,1-2.6-.669,6.474,6.474,0,0,0-2.01-.95c-1.822-1.079-2.779-2.887-3.878-4.578a1.421,1.421,0,0,0-1.217-1.133c-1.935-.444-2.26-1.731-1.784-3.422a8.578,8.578,0,0,0,.462-2.867c-.125-1.99-.891-2.661-2.865-2.314-1.813.317-2.747-.3-2.747-2.182a12.669,12.669,0,0,1,1.235-2.482,2.364,2.364,0,0,1,1.793-1.219c2.856-.4,5.29-1.958,7.978-2.813a5.3,5.3,0,0,0,2.5-.9c2.128-.6,2.912-1.929,3.241-4.195.433-3,1.92-5.8,2.779-8.75a4.023,4.023,0,0,1,4.827-2.4,6.542,6.542,0,0,0,5.845-1.344c1.444-.709.245-1.489.052-2.239a5.107,5.107,0,0,1-.505-1.963c0-3.724-1.6-4.773-5.888-5.269a6.022,6.022,0,0,0-1.355-.007c-2.094.224-3.13-.646-3.558-2.772-.533-2.654-1.489-3.06-4.055-2.167a46.679,46.679,0,0,0-5.723,2.087c-.723.181-1,.8-1.326,1.369-2.273,2.062-3.921,2.257-6.121.73Z" transform="translate(-838.965 -20.482)" fill="#7f56d9" stroke="#191919" stroke-width="1"/>
</svg>
