<svg xmlns="http://www.w3.org/2000/svg" width="59.124" height="73.747" viewBox="0 0 59.124 73.747">
  <path id="Path_29264" data-name="Path 29264" d="M584.805,1012.831a3.584,3.584,0,0,0-1.881-1.55,1.293,1.293,0,0,0-1.985,1.36,2.559,2.559,0,0,1-.143,1.528,1.732,1.732,0,0,0,.066,1.877c.548.952.177,1.5-.884,1.736-.789.175-1.756-.358-2.371.388-.573.7.154,1.6-.143,2.4a9.387,9.387,0,0,0-.351,3.805,3.068,3.068,0,0,1-.671,2.339c-1.512,1.618-1.432,3.343-.49,5.17.179.347.32.732,0,1.04-.372.36-.646-.063-.972-.188a12,12,0,0,0-6.393-.78c-.922.159-1.795.428-2.513-.369-.505-.56-.4-2.622.136-3.456.283-.442.612-.857.918-1.285a9.534,9.534,0,0,0,.909-1.353,10.124,10.124,0,0,0,.612-1.2c.612-1.725.186-2.187-1.611-2.443a28.221,28.221,0,0,0-5.77,0c-3.112.193-6.1-.306-8.481-2.7a2.6,2.6,0,0,1-.875-2.989,5.129,5.129,0,0,0,.295-1.534c.043-1.319-.51-1.885-1.843-2-1.8-.152-1.777-.15-1.5-1.944.236-1.55.41-3.109.614-4.664-.344-.46-.947-.548-1.342-.936a4.279,4.279,0,0,1,.843-4.19,9.758,9.758,0,0,0,1.886-6.065c.007-.786.073-1.5.857-1.931a2.055,2.055,0,0,0,.836-2.754c-.947-2.7-1.145-5.575-2-8.29a7.275,7.275,0,0,1-.127-3.125c1.1-.045,2.371.542,3.143-.8.6-.818.426-1.877.85-2.751a5.017,5.017,0,0,1,1.376-2.554,11.194,11.194,0,0,0,2.137-2.577c.6-1.108,1.142-1.063,2.019-.134.961,1.02,1.283,1.149,2.169.152,2.241-2.522,5.457-3.962,7.343-6.915.884-1.385,2.663-1.924,4.127-2.665.977-.494,2.167.272,2.568,1.5a10.109,10.109,0,0,0,2.833,5.011c.335.446.909.582,1.283.979a3,3,0,0,0,4.014.326c1.158-.746,2.273-.195,2.894,1.154a6.194,6.194,0,0,1,.057,4.816c-.684,1.985-.109,3.282,1.577,4.453a1.271,1.271,0,0,0,2.058-.383,4.289,4.289,0,0,0,.759-2.3c.141-2,.465-2.4,2.443-2.477a3.454,3.454,0,0,0,3.055-1.5c.664-.449,1.668-.174,2.155-1.006v0a.385.385,0,0,1,.46.088l.009.016c.578.782.326,1.892,1.034,2.624a1.471,1.471,0,0,1,.816.771,3.311,3.311,0,0,0,1.292,2.76c1.6,1.212,1.979,3.123,2.964,4.68a.789.789,0,0,1-.288,1.169,2.636,2.636,0,0,0-1.3,3.535,2.81,2.81,0,0,1-1.165,2.788,7.166,7.166,0,0,0-2.4,4.193c-.165.793-.376,1.528-1.435,1.233a1.2,1.2,0,0,0-1.367.526A8.025,8.025,0,0,1,595.736,997a1.037,1.037,0,0,1-1.385-.059,6.037,6.037,0,0,0-.424-.793c-.562-.764-1.344-.585-2.042-.333a1.152,1.152,0,0,0-.687,1.491,3.136,3.136,0,0,1-.678,2.674c-.929,1.478-.877,3.406-2.019,4.827a.579.579,0,0,0-.052.44c.7,2.953,0,6.2,1.856,8.911.424,2.112.283,2.25-1.82,1.786-.918-.576-1.557-1.557-2.679-1.833-.469-.317-.585-.913-1-1.274Z" transform="translate(-547.387 -959.808)" fill="#0570c7" stroke="#191919" stroke-width="1"/>
</svg>
