<svg xmlns="http://www.w3.org/2000/svg" width="144.447" height="106.239" viewBox="0 0 144.447 106.239">
  <path id="Path_29262" data-name="Path 29262" d="M373.546,906.793A2.93,2.93,0,0,1,374,910.3a7.7,7.7,0,0,0-.471,2.62,8.079,8.079,0,0,1-1.058,4.048,2.915,2.915,0,0,0-.249,1.527c-.025,2.019.073,4.043-.034,6.058-.075,1.432.884,2.534.981,3.882,1.224,3.932,1.741,8.027,2.731,12.014a1.9,1.9,0,0,1-.254,1.525c-2.214,3.1-1.546,7.311-4,10.337a2.422,2.422,0,0,0-.2,1.967c.093.732.857,1.034,1.09,1.675a5.151,5.151,0,0,1-.086,2.457c-.19,1.623-.707,3.282,1.779,3.812,1.151.245,1.258,1.546,1.21,2.663-.131,3.13.961,4.662,3.986,5.525a12.391,12.391,0,0,0,5.6.433,12.547,12.547,0,0,1,4.268.082c3.046.49,3.515,1.457,2.028,4.288a6.729,6.729,0,0,0-1.067,1.707,16.23,16.23,0,0,0-.875,1.58c-.657,1.849-.014,2.781,1.965,2.547,2.13-.249,4.166.385,6.461.548a7.221,7.221,0,0,1,.954-5.895c1.074-1.84.539-4.134.814-6.217.2-1.489.537-2.457,2.173-2.561.945-.061,1.358-.551,1.1-1.514a3.687,3.687,0,0,1,.077-1.79c.263-1.188-.129-2.742,1.571-3.162,1.453-.358,2.418.521,3.273,1.537.315.49.48,1.1,1.092,1.357a13.508,13.508,0,0,1,2.672,1.945c.428.3.888.718,1.367.186.666-.746-.211-1.172-.458-1.727a15.252,15.252,0,0,1,.141-14.04,5.629,5.629,0,0,0,.859-2.534c-.009-1.052.274-1.969,1.439-2.264a2.013,2.013,0,0,1,2.457,1.095c.261.517.587.743,1.086.24,1.172-.8,2.06-2.028,3.581-2.271.222-.036.539-.14.564-.326.426-3.22,4.546-4.855,3.7-8.619a1.163,1.163,0,0,1,.222-1.076c2.5-2.366.542-4.15-.773-6-.793-1.117-2.135-2.008-1.369-3.694a6.156,6.156,0,0,0,3.053-1.811,1.871,1.871,0,0,1,2.25-.546,5.256,5.256,0,0,0,3.332-.147c1.172-.358,2.074-.927,1.833-2.4-.17-1.042.494-1.5,1.362-1.759a7.652,7.652,0,0,1,6.056,1.027,6.437,6.437,0,0,0,1.575.857,11.289,11.289,0,0,1,1.364.916,3.025,3.025,0,0,1,.669,2.5c-.265,1.21.419,1.584,1.446,1.736a8.318,8.318,0,0,0,2.881-.215c1.518-.079,2.967-.9,4.535-.417,3.071,1.518,4.916,4.222,6.7,6.976a2.8,2.8,0,0,0,.653.886c-.374,1.024-1.414,1.568-1.772,2.663-.349,1.067-1.523.6-2.33.825a1.15,1.15,0,0,0-.512.51,18.342,18.342,0,0,1-6.128,6.475,9.285,9.285,0,0,0-2.958,3.254c-.886,1.6-2.5,2.692-3.395,4.329a.489.489,0,0,1-.369.22c-2.264-.093-2.3,1.412-2.2,3.028.034.557-.045,1.07-.734,1.194a1.257,1.257,0,0,0-.519.524c.072,1.219,1.237,1.6,1.872,2.38.986,1.21,1.1,1.668-.057,2.781a5.249,5.249,0,0,0-1.4,3.318c-.347,2.142-.224,4.329-.653,6.393-.254,1.219-.24,3.035-1.967,3.647a1.186,1.186,0,0,0-.514.519c-.236.748-.829,1.253-.968,2.158-.243,1.589-1.471,2.853-2.454,4.077-.725.9-.535,1.813-.834,2.686-.261.755-1.686-.145-1.965.988-.073.292-.118.589-.175.886-.621.419.573,3.155-1.763,1.382-.154-.154-.324-.456-.46-.44-1.555.177-1.947-.712-1.813-2.065-1.453.662-2.112.616-2.547-.573a5.78,5.78,0,0,0-1.972-2.3c-.428-.3-.562-.829-.913-1.1a5.459,5.459,0,0,1,.743,1.45,4.075,4.075,0,0,0,1.108,3.259,3.251,3.251,0,0,1,.929,2.414c-.016.578-.111,1.16.474,1.643.51.422.1.827-.168,1.328a3.475,3.475,0,0,1-3.955,1.915,29.011,29.011,0,0,0-4.068-.023,4.733,4.733,0,0,0-2.772.533c-.922.6-2.205.2-3.327.2-1.643,0-3.277-.073-4.632,1.115a1.289,1.289,0,0,1-1.494.147c-1.412-.922-3.13-.687-4.594-1.346a.991.991,0,0,1-.05-1.256c-.007-.258-.011-.514-.018-.773a3.276,3.276,0,0,1-.768-1.666.869.869,0,0,1,0-.374c-.229.179-.009.406-.061.616a2.332,2.332,0,0,1-.394,1.521c-.084.927-.877.594-1.38.777a2.291,2.291,0,0,0-.533.4H396.7a2.176,2.176,0,0,0-.533-.4,9.7,9.7,0,0,1-3.914-.9c-.635.267-.487,1.151-1.117,1.426a1,1,0,0,1-.861-.22,3.5,3.5,0,0,1-.46-.4c-.07-.072-.138-.15-.208-.222a3.306,3.306,0,0,1-.36-.487c-.045-.088-.088-.181-.136-.272-.075-.186-.138-.376-.195-.569-.485-1.552-2.658-1.376-3.071-3a.348.348,0,0,1-.011-.406.046.046,0,0,0-.066.007c-.138.229.052.385.127.569a2.686,2.686,0,0,0,1.8,1.77,2.346,2.346,0,0,1,1.212,1.917,1.677,1.677,0,0,1-.079.519c.02.208-.471.12-.258.444a1.974,1.974,0,0,1,.272.385,4.81,4.81,0,0,1,.288.666,1.242,1.242,0,0,1,.027.492,1.389,1.389,0,0,1-.569.8,2.864,2.864,0,0,1-2.747.6.274.274,0,0,0-.449.093l.036.023a1.026,1.026,0,0,1-1.1-.023c-.5-.265-.372-.743-.4-1.167-.039-.576.122-1.194-.376-1.666a2.753,2.753,0,0,1-.129-1.53,3.488,3.488,0,0,0-.474-2.207c-.05.845.236,1.5-.177,2a.982.982,0,0,1-.848.188c-.134-.025-.249-.145-.369-.163-.2-.034-.224.057-.025.163.514.227,1.179.17,1.392.854a1.42,1.42,0,0,1,.009.625,10.616,10.616,0,0,1,.07,2.874,2.665,2.665,0,0,1,.141.66c-.029.7,1.188,1.052.659,1.743-.56.734-1.539.3-2.328.322-.825.027-1.645-.548-2.484-.025a1.987,1.987,0,0,1-.236-.564c-.356-.741-.66-1.5-1.072-2.216a5.268,5.268,0,0,1,.172-4.211c.073-.684-.49-.981-.857-1.4-1.276-1.2-.95-2.921-1.425-4.363-.542.018-.079.333-.136.49.721,1.269.3,3,1.673,4a2.782,2.782,0,0,1,.406.474,2.387,2.387,0,0,1,.159.612,2.866,2.866,0,0,1-.023.623c-.709,1.489-.306,2.924.224,4.347.215.512.494.993.739,1.491a2.3,2.3,0,0,0,.415.689,1.107,1.107,0,0,1-.714,1.224c-1.3.261-2.654.635-3.894-.258-.521-1.766-1.725-3.481-.406-5.389a.469.469,0,0,0,.043-.215c-.236.141-.233.469-.471.605a1.393,1.393,0,0,0-.816,1.6,4.314,4.314,0,0,0,.569,1.813,3.445,3.445,0,0,1,.184.519,3.368,3.368,0,0,1,.1,1.086,1.869,1.869,0,0,1-2.756-.1c-.959-.927-.315-2.284-.9-3.418a14.98,14.98,0,0,1,.111,2.318,2.963,2.963,0,0,1-.6,1.586,2.3,2.3,0,0,1-2.987.628c-.784-.48-1.149-.659-1.863-.009-.329.3-.975.254-1.478.365-.165.127-.34.247-.519.358a1.927,1.927,0,0,1-.916.245c-.886-.254-2.352.737-2.468-1.158a1.99,1.99,0,0,1,.136-.934,2.763,2.763,0,0,1,.6-1.02,7.694,7.694,0,0,0,.539-.551c.068-.152.027-.263-.15-.324a1.356,1.356,0,0,1-.644-.336c-.2-.161-.3-.564-.625-.415-.261.12-.238.474-.247.755.186,1.049.508,2.126-.632,2.878l-.208-.045c-.363,1.7-1.954,1.179-2.992,1.654-.752.143-1.478.274-2-.539a1.521,1.521,0,0,0-1.541-.727c-.51-.29-.344-.87-.553-1.276a1.5,1.5,0,0,0-.118-.345c0,.018-.136-.014-.136-.014a.951.951,0,0,0-.05.143,2.563,2.563,0,0,1,.029.37.246.246,0,0,1-.231.283,2.556,2.556,0,0,1-2.427-.782,115.635,115.635,0,0,1-9.754-9.009c-.152-.163-.431-.363-.408-.508.274-1.725-1.122-2.625-1.911-3.785-.485-.716-.227-1.453-.458-2.142a2.5,2.5,0,0,0-.408-.539c-.227-.773-1.145-1.24-.968-2.189a3.342,3.342,0,0,0-.392-.553c.066-1.523-.818-2.779-1.219-4.168a1.074,1.074,0,0,1,.848-1.811c.109-.039.335-.082.335-.125-.009-.315-.272-.079-.41-.154a3.843,3.843,0,0,1-1.666-.515c-.068-.73-.136-1.457-.2-2.187-.349-.41-.018-1.015-.406-1.412a3.776,3.776,0,0,0-.116-.662c-.494-1.367-.193-1.94,1.142-1.99.657-.025,1.462-.3,1.958.156,1.079.986,1.12-.247,1.568-.614a1.812,1.812,0,0,0,.825-2.289,2.227,2.227,0,0,1,.215-.92c.349-.646,1.045-.582,1.673-.782a3.568,3.568,0,0,0-1.12.2c-.859.276-1.063.993-1.178,1.768a2.538,2.538,0,0,1-.186.555,1.376,1.376,0,0,1-.623.589,1.936,1.936,0,0,1-.836.086,1.948,1.948,0,0,0-.82-.125c-.392.134-.469.594-.807.782-.576-1.131-1.718-.616-2.588-.888a3.04,3.04,0,0,0-.553-.39,5.5,5.5,0,0,1-4.009-4.07,2.172,2.172,0,0,1,1.564-1.267,5.584,5.584,0,0,1,3,.023c1.516.741,2.459.052,3.146-1.269a1.362,1.362,0,0,1,1.135-.023.331.331,0,0,1,.295.22c.12-.326-.247-.125-.3-.274-.954-.868-1.21.116-1.652.605-.435,1.1-1.278,1.054-2.2.791a.977.977,0,0,1-.857-.877,4.436,4.436,0,0,1,.539-2.294c-.657.925-.8,1.716-1.231,2.348-.533.766-1.448.49-2.151.8-.707.143-1.38,1.063-2.135.093a7.388,7.388,0,0,1-1.883-6.2c.381-.474,1.158-.161,1.475-.757a2.97,2.97,0,0,1,.3-.494,5.9,5.9,0,0,1,2.833-1.591,10.382,10.382,0,0,0-2.819,1.308c-.494.3-.891.734-1.378,1.047a2.023,2.023,0,0,1-.553.152,1.659,1.659,0,0,0-.737.4c-.514.5-.938.451-1.3-.272a5.822,5.822,0,0,1-.585-3.343c.068-2.094,1.077-3.889,1.917-5.711.741-1.6.723-2.858-.859-3.889a6.89,6.89,0,0,1-1.469-1.392c-1.287-1.539-1.3-2.788.179-4.122a10.977,10.977,0,0,0,2.262-3.05,3.29,3.29,0,0,0,.1-3.021c-1.38-3.359-1.022-4.651,1.872-7.259a1.879,1.879,0,0,0,.95-1.564,2.245,2.245,0,0,1,2.439-1.89c2.255-.059,4.515-.125,6.767.027,1.736.118,3.087.752,2.98,2.876-.05.979.446,1.231,1.43,1.149,3.334-.279,4.712-1.426,4.986-5.21.315-4.345,2.7-7.715,4.766-11.23a5.78,5.78,0,0,0,.929-4.03c-.526-3.3-.136-3.952,3.282-5.36,1.5.612,2.865,1.253,2.645,3.327-.109,1.018.56,1.423,1.607,1.294a2.721,2.721,0,0,0,1.246-.483,1.881,1.881,0,0,1,2.622.22c1.14,1.015,2.264,2.155,4.1,1.7.546-.136,1.1.408,1.392.97.24.465.4.972.639,1.441.938,1.852,1.174,2.013,3.128,1.158,1.178-.514,1.845-.281,2.334.82.267.53.882.639,1.256,1.038Z" transform="translate(-318.207 -894.76)" fill="#d92bd6" stroke="#191919" stroke-width="1"/>
</svg>
