<svg xmlns="http://www.w3.org/2000/svg" width="107.346" height="106.115" viewBox="0 0 107.346 106.115">
  <path id="Path_29263" data-name="Path 29263" d="M78.076,746.057a8.827,8.827,0,0,0-2.126,2.6,3.107,3.107,0,0,0,.018,3.581,3.437,3.437,0,0,1,.156,4.19,7.207,7.207,0,0,1-2.468,3.064c-1.294.762-1.2,2.2-.039,3.352a9.385,9.385,0,0,0,2.155,1.926,1.8,1.8,0,0,1,.8,2.516c-1.04,2.314-1.729,4.777-3,6.992A5.4,5.4,0,0,1,71.4,771.9a2.561,2.561,0,0,0-.956-1.2c-2.06-1.321-3.406-3.334-5.043-5.065a4.809,4.809,0,0,0-1.623-1.1,8.27,8.27,0,0,1-3.028-2.114,10.957,10.957,0,0,0-5.582-3.2c-2.522-.716-5.181-.927-7.692-1.528-2.606-.623-5.16-.308-7.692-.689-1.308-.2-2.645-.857-3.918-.485-3.479,1.015-7,.347-10.5.551a7.526,7.526,0,0,1-1.122-.093c1.777-1.163,3.164-2.978,5.46-3.277a5.991,5.991,0,0,0,1.516-.147c.27-.075.546-.129.823-.177a2,2,0,0,0,1.14-.625,3.117,3.117,0,0,1,.451-.32c.222-.2.7-.177.644-.6-.016-.131-.363-.075-.567-.036-.175.057-.347.1-.521.152a4.259,4.259,0,0,0-1.251.548,4.8,4.8,0,0,1-.485.288,8.865,8.865,0,0,1-1.045.476,3.79,3.79,0,0,1-.567.147,5.482,5.482,0,0,0-2.214.757,2.881,2.881,0,0,1-2.427,0c-1.566-.934-2.171-.29-2.475,1.206a2.812,2.812,0,0,1-.761,1.611,4.6,4.6,0,0,1-3.084.882c-2.219.086-4.49-.48-6.656.535a2.155,2.155,0,0,1-1.552-.059,7.7,7.7,0,0,0-5.621-.02,11.959,11.959,0,0,1-3.6.1c-.587,0-.669-.41-.73-.911-.168-1.4.632-2.563,1.129-3.708.526-1.21-.365-1.992-.281-2.944.088-.99,1.552-1.355,1.317-2.683-.156-.877.029-1.8-.877-2.384-.519-.333-.524-.875-.521-1.41,0-1.133.023-2.266-.007-3.4a2.241,2.241,0,0,1,.732-2.024,1.963,1.963,0,0,0,.31-2.785c-.372-.6-.567-.92-.011-1.514a1.977,1.977,0,0,0,.181-2.33c-1.16-1.845-.324-3.805-.585-5.684a.887.887,0,0,1,.381-.757,2.5,2.5,0,0,0,.381-3.7,5.513,5.513,0,0,1-1.4-4.061c.073-1.28.011-2.565.016-3.85a3.513,3.513,0,0,0-.873-2.629c-1.1-1.26-.381-3.016-.381-4.562,0-.12.242-.24.245-.365.057-2.577,1.457-5.034.936-7.6a15.233,15.233,0,0,1-.691-4.292c.059-.741-.054-1.451.737-1.994,1.07-.734.542-1.922.582-2.937a2.945,2.945,0,0,1,2.631-1.38,5.088,5.088,0,0,0,3.81-1.675,59.646,59.646,0,0,1,5.373-4.043,1.926,1.926,0,0,1,2.652-.125,1.273,1.273,0,0,0,1.645.15c1.371-.893,2.992-1.346,4.254-2.43a16.29,16.29,0,0,0,1.421-.845,1.235,1.235,0,0,0,.857-.5c.424-.351.995-.474,1.385-.882,2.2-.784,4.07-2.216,6.174-3.193a1.965,1.965,0,0,0,1.031-1.659,5.406,5.406,0,0,1,.539-1.711c1.262-2.661,4.143-3.007,5.614-.508a8.294,8.294,0,0,0,5.494,3.925,17.242,17.242,0,0,1,2.343.809c1.088.451,2.139.73,3.2-.07a.725.725,0,0,1,1.02.02c.406.4.2.752-.016,1.2-.494,1.015-1.688,1.224-2.275,2.1a8.83,8.83,0,0,0-.931,1.326,5.158,5.158,0,0,0-.138,5.145c.444,1.029.963,2.024,1.45,3.035.49.678.363,1.611.938,2.253a9.378,9.378,0,0,1,1.863,4.528,5.907,5.907,0,0,0,2.2,3.844,8.7,8.7,0,0,1,2.763,4.528c.456,1.641,1.389,2.108,3.134,2.3a13.83,13.83,0,0,0,6.164-.845,14.436,14.436,0,0,1,2.457-.331,2.227,2.227,0,0,1,2.3,0,3.1,3.1,0,0,0,2.869,1.367c1.292-.093,2.55.884,3.939.222.236-.111.761.131,1.02.363,1.21,1.086,2.67.827,4.082.852.743.014,1.416-.2,1.555-.995.267-1.568,1.394-1.79,2.661-1.84.6-.025,1.2-.011,1.806.007.381.011.807.059.716.594-.288,1.693.673,1.21,1.6,1a6.592,6.592,0,0,1,2.013-.127c.816.073,1,.616.578,1.278-.32.5-.807.9-1.1,1.414-.766,1.321-.562,2,.845,3.193.326.533.941.591,1.423.866.462.245.945.46,1.385.741a4.171,4.171,0,0,0,3.993.725.99.99,0,0,1,1.484.825,9.244,9.244,0,0,0,3.871,5.274,9.561,9.561,0,0,1-2.724,2.28,1,1,0,0,0-.446,1.659c.95,1.2.351,2.618.6,3.912a1.215,1.215,0,0,1-.381,1.006c-2.2,1.557-2.565,4.134-3.576,6.343a6.644,6.644,0,0,1-.791,1.335c-.845,1.09-1.521,2.237-.859,3.7.116.254.2.721.066.859-1.181,1.2-1.174,2.869-1.779,4.29a1.556,1.556,0,0,1-2.192.956,2.5,2.5,0,0,0-2.151.154c-1.328.659-2.078.143-2.047-1.321.059-2.7-.014-2.785-2.656-2.8-2.108-.014-4.215.036-6.321-.016a1.605,1.605,0,0,0-1.886,1.711c-.338.437-.424,1.04-.9,1.385Z" transform="translate(0.458 -668.899)" fill="#fe7d81" stroke="#191919" stroke-width="1"/>
</svg>
