<svg xmlns="http://www.w3.org/2000/svg" xmlns:xlink="http://www.w3.org/1999/xlink" width="24" height="24" viewBox="0 0 24 24">
  <defs>
    <clipPath id="clip-path">
      <rect id="Rectangle_8585" data-name="Rectangle 8585" width="24" height="24" fill="#fff"/>
    </clipPath>
  </defs>
  <g id="Group_9536" data-name="Group 9536" clip-path="url(#clip-path)">
    <path id="Path_14580" data-name="Path 14580" d="M1126.05,304.75a13.919,13.919,0,0,0,14.01-14.008c0-.211-.01-.427-.02-.638a9.9,9.9,0,0,0,2.46-2.549,9.718,9.718,0,0,1-2.83.774,4.957,4.957,0,0,0,2.17-2.723,9.877,9.877,0,0,1-3.13,1.2,4.935,4.935,0,0,0-8.08,1.34,5.011,5.011,0,0,0-.31,3.149,14,14,0,0,1-10.15-5.14,4.943,4.943,0,0,0,1.53,6.57,4.883,4.883,0,0,1-2.23-.614v.061a4.915,4.915,0,0,0,3.95,4.828,4.931,4.931,0,0,1-2.23.084,4.958,4.958,0,0,0,4.6,3.422,9.852,9.852,0,0,1-7.29,2.037A13.951,13.951,0,0,0,1126.05,304.75Z" transform="translate(-1118.5 -283)" fill="#858689"/>
  </g>
</svg>
