<svg xmlns="http://www.w3.org/2000/svg" width="252.661" height="159.54" viewBox="0 0 252.661 159.54">
  <path id="Path_29260" data-name="Path 29260" d="M250.417,415.945a7.879,7.879,0,0,0,1.682,1.1c2.185.734,2.527,2.461,2.341,4.354a10.413,10.413,0,0,0,.866,5.7,8.054,8.054,0,0,1,.743,3.962,6.973,6.973,0,0,0,.147,2.248,3.8,3.8,0,0,1-2.074,4.782,27.816,27.816,0,0,1-8.231,2.921c-1.5.274-3.191.5-4.014,2.162a5.816,5.816,0,0,0-.929,1.317l-.446.467c-.408.365-.553.931-.984,1.278a6.514,6.514,0,0,1-1.9,1.552,20.083,20.083,0,0,0-5.031,3.776,8.813,8.813,0,0,1-7.046,2.928,2.99,2.99,0,0,0-2.946,1.154c-.972,1.319-2.473,1.246-3.916.764-.857-.286-1.684-.669-2.541-.954a1.423,1.423,0,0,0-1.786.569c-.431.644-1.013,1.541-.431,2.056,1.507,1.333,1,3.236,1.688,4.764a.915.915,0,0,1-.41,1.314c-1.047.728-2.056,1.512-3.123,2.21a12.033,12.033,0,0,0-3.964,3.93c-.2.34-.331.7-.011,1.027.249.254.571.141.836.009,3.959-1.956,8.147-1.172,12.236-.845,2.046.163,3.617,1.756,4.97,3.277,1.6,1.8,3.248,3.533,4.972,5.213a5.594,5.594,0,0,1,1.648,5.752,24.91,24.91,0,0,0-.879,4.639,3.742,3.742,0,0,1-1.872,3.137c-.383.39-.95.539-1.294.984-2.6,2.774-3,6.3-3.171,9.82-.152,3.06.073,6.137-.972,9.095-1.231.589-2.439,1.092-2.939,2.629-.333,1.02-1.559.562-2.382.78-.99.059-1.081-.87-1.516-1.4-1.827-2.23-3.5-4.617-6.171-5.972-1.484-.8-2.826.082-4.215.369a7.433,7.433,0,0,1-1.75.419,2.674,2.674,0,0,1-3.171-2.633,5.2,5.2,0,0,0-.442-1.729,1.817,1.817,0,0,0-1.437-1.02,12.849,12.849,0,0,0-4.789-1.888c-1.444-.12-2.817.054-3.2,1.75-.505,2.232-2.226,2.919-4.057,2.826a7.063,7.063,0,0,0-5.024,1.369,2.663,2.663,0,0,1-1.729.428,1.826,1.826,0,0,1-1.16-.551c-.514-.639-.476-1.482-.793-2.192-.073-.145-.138-.3-.2-.444-.125-.131-.208-.431-.451-.091a2.363,2.363,0,0,1-.419.286,3.92,3.92,0,0,0-1.6,1.126c-2.833,1.1-5.358,2.373-6.022,5.859-.2,1.072-1.632,1.151-2.674.426a4.458,4.458,0,0,1-1.861-4.732,9.04,9.04,0,0,0,.163-3.792c-.363-1.364-1.226-2.212-2.645-1.493a3.339,3.339,0,0,1-3.932-.546,6.726,6.726,0,0,0-1.491-1.219,8.758,8.758,0,0,1-2.885-4.478c-.712-1.917-1.43-2.16-3.25-1.172a11.237,11.237,0,0,0-3.787,3.155c-1.779,2.4-4.553,3.687-6.636,5.766a1.234,1.234,0,0,1-1.469.32c-1.806-1.281-2.6-.066-3.574,1.194a14.021,14.021,0,0,0-2.334,3.3,16.871,16.871,0,0,0-.988,2.917,2.542,2.542,0,0,1-3.422.714,7.991,7.991,0,0,1-1.546-4.617c-.51-4.753,1-9.233,1.756-13.811.163-.984.465-1.9-.068-2.835a3.452,3.452,0,0,0-1.317-1.423,1.935,1.935,0,0,0-2.085-.437c-1.7.628-2.788-.181-3.443-1.632a3.129,3.129,0,0,0-3.1-2.144,1.305,1.305,0,0,1-.859-.233c-1.679-1.48-3.424-2.207-5.709-1.226a1.453,1.453,0,0,1-1.924-1.387,3.927,3.927,0,0,0-2.237-3.157,10.272,10.272,0,0,1-4.134-4.628c-.335-.684-.594-1.444-1.582-1.28-2.047.34-3.622-.673-5.181-1.754a10.27,10.27,0,0,0-1.736-.922,2.584,2.584,0,0,1-.854-3.751c.773-1.414.786-2.11-1.106-1.795a1.958,1.958,0,0,1-1.976-.734,2.425,2.425,0,0,0-3.855.172c-1.274,2.09-3.236,2.151-4.952,1.546-2.271-.8-4.587-.727-6.867-1.124a3.806,3.806,0,0,1-2.7-1.43c-.718-1.235-1.568-.315-2.373-.138-2.656.431-5.133,1.716-7.962,1.385-2.1-.245-3.592-.977-4.184-3.114a3.858,3.858,0,0,0-.859-1.827c-3.148-2.881-4.068-6.917-5.645-10.611a5.261,5.261,0,0,0-1.088-2.368,19.876,19.876,0,0,1-1.886-4.295,4.553,4.553,0,0,1,.582-4.061,13.243,13.243,0,0,0,1.117-1.611c.369-.839,1.441-1.092,1.675-1.879-4.451-.773-8.889-1.326-11.735-5.587-1.219-1.824-3.751-1.643-4.3.412-1.151,4.315-4.888,5.156-8.061,6.844a2.409,2.409,0,0,0-1.5.823,2.547,2.547,0,0,1-1.036.578,3.446,3.446,0,0,0-1.53.922c-2.08,1.38-3.964,3.332-6.874,2.105-.65-.274-1.305.218-1.863.605a17.632,17.632,0,0,0-2.738,1.967c-2.454,2.541-5.562,3.619-8.886,4.3-.648-.227-.542-.793-.548-1.283-.016-1.167,0-2.337,0-3.5a4.073,4.073,0,0,1,.02-3.554c-.2-1.65.927-3.112.678-4.768.578-1.058-.043-2.359.682-3.39.045-.138.093-.274.138-.413a2.027,2.027,0,0,0,3.164-.465c.349-.467.868-.417,1.392-.045a3.308,3.308,0,0,0,2.624.242,2.832,2.832,0,0,0,2.445-1.838c1.015-2.919,2.169-5.788,1.591-8.982a2.306,2.306,0,0,1,0-1.963c.213-.87,1.058-1.217,1.577-1.829.576-.678,1.3-1.14,1.283-2.212-.014-.852.7-1.188,1.48-1.405,2.049-.567,2.248-.995,1.446-2.837-.784-1.8-.24-2.851,1.786-3.356a8.353,8.353,0,0,1,2.092-.632c2.427-.025,2.452-.07,3.751-2.115a22.161,22.161,0,0,0,1.145-2.328c.483-.714-.063-1.6.4-2.321.052-.517.512-.7.809-1.02a2.519,2.519,0,0,0,.059-3.422,16.557,16.557,0,0,0-1.414-1.435,1.545,1.545,0,0,1-.354-2.321,6.179,6.179,0,0,0,1.049-2.627,1.713,1.713,0,0,1,2.359-1.33c.406.136.73.467,1.212.517,1.378.141,1.722-.043,1.79-1.416.057-1.138.727-2.033,1.006-3.087.551-2.067.861-3.878-1.045-5.455-.714-.591-.884-1.675-1.618-2.328a.862.862,0,0,1-.159-1.036,6.527,6.527,0,0,0-.646-6.493c-.694-1.013-.039-1.813.63-2.554a3.037,3.037,0,0,1,3.608,0c5.19,3.744,11.026,2.622,16.73,2.328,2.473-.127,4.791-.073,6.77,1.636a4.508,4.508,0,0,0,1.813,1.142c3.6,1.659,3.708,1.775,2.425,5.611-.533,1.591-.011,3.329-.875,4.832a9.732,9.732,0,0,0-1.249,1.62,3.878,3.878,0,0,1-1.335,1.183c-3.137,1.929-3.821,4.617-1.9,7.821a5.357,5.357,0,0,1,.66,3.9c-.116.664-.279,1.473.548,1.754.941.32,1.106-.528,1.3-1.163.514-1.707,1.87-2.282,3.427-2.507a9.388,9.388,0,0,0,3.243-.882,1.531,1.531,0,0,0,1.065-1.371,4.044,4.044,0,0,0-1.106-3.3c-1.718-2.162-1.419-4.637-1.124-7.085a2.294,2.294,0,0,1,2.314-2.056,17.514,17.514,0,0,0,2.667-.286,6.007,6.007,0,0,0,2.1-.716c2.658-.875.836-2.475.612-3.812a3.569,3.569,0,0,1-.007-1.251,5.8,5.8,0,0,0,.073-4.224,2.7,2.7,0,0,0-1.344-1.052c-1.46-.907-3.279-.789-4.75-1.661a5.8,5.8,0,0,0-1.729-.959c-1.87-1.58-1.833-2.715.161-4.014a21.743,21.743,0,0,1,6.566-2.373c2.035-.535,4.152-.662,6.212-1.172a4.155,4.155,0,0,1,5.165,2.93,9.536,9.536,0,0,0,2.049,3.724c.945.952.839,2.2.9,3.406.131,2.556,1.244,3.275,3.73,2.552,3.2-.929,6.212-2.328,9.333-3.447a5.992,5.992,0,0,0,1.675-1.135c1.734-1.394,2.79-1.378,4.238.31a17.041,17.041,0,0,1,3.087,5.233,7.8,7.8,0,0,1,.039,2.513c-1.185,2.185-1.809,4.4-.639,6.84.408.854-.141,1.747-.363,2.618-.394,1.557-.553,3.071.569,4.487,1.36,1.718,1.63,1.8,2.978.082a18.213,18.213,0,0,1,6.45-5.145c1.233-.605,2.314-.635,3.073.725.682,1.281,1.4.648,2.114.029,1.532-.673,3.288-.646,4.51-2.26.857-1.133,2.837-.428,3.452,1.095a4.1,4.1,0,0,0,2.139,2.464,3.039,3.039,0,0,1,1.609,2.8,5.363,5.363,0,0,0,.5,2.631,3.964,3.964,0,0,0,1.84,1.147c1.4.816,1.086,1.813.265,2.819a20.567,20.567,0,0,1-2.6,2.167c-.154.131-.32.254-.485.372s-.315.238-.471.356a1.319,1.319,0,0,0-.517,1c.505,2,2.126,2.362,3.807,2.522,1.491.143,3-.048,4.5.109,1.788.188,3.27.943,3.535,2.876.3,2.171,1.645,4.614-1.1,6.273-.2.145-.675.131-.342.6a5.53,5.53,0,0,1,.816.684c.65.873.721,2.115,1.756,2.74.9,1.985-.843,3.032-1.65,4.34a4.252,4.252,0,0,0-.177,4.877c.224.342.526.65.888.607,2.2-.261,4.53.276,6.581-.857.99-.546,1.784-.757,2.6.168.626.936,1.666.725,2.559.92a9.254,9.254,0,0,1,2.4.625c1.534.823,2.618.44,3.73-.873,1.475-1.741,2.747-1.466,4.254.265,1.682,1.929,3.064,3.864,2.837,6.6a1.706,1.706,0,0,0,.852,1.745c.823.324,1.353-.444,1.92-.92a4.571,4.571,0,0,0,.462-.5c2.205-2.47,4.875-2.717,7-.256,2.629,3.044,3.282,3.264,5.863-.954,2.278-3.726,2.726-6.55-.58-9.895-1.867-1.89-1.3-4.734-.338-7.087a12.537,12.537,0,0,0,1.19-5.457,8.154,8.154,0,0,1,.646-3.082,8.468,8.468,0,0,0,.44-4.447,4.97,4.97,0,0,1,2.158-5.543c1.392-.861,1.448-2.9,3.22-3.293,2.894-.245,4.274.809,4.537,3.631.145,1.573.059,3.168.129,4.75.1,2.189.691,2.647,2.837,2.284a11.484,11.484,0,0,1,1.786-.254c1.6-.014,2.232.519,2.7,2.071.51,1.684.814,3.254-.222,4.963-1.015,1.677-.75,2.01.907,3.177a5.067,5.067,0,0,1,1.818,1.981,4.159,4.159,0,0,0,3.041,2.407,25.094,25.094,0,0,0,10.543.349,2.377,2.377,0,0,0,1.7-1.319,5.263,5.263,0,0,1,2.4-2.287c1.571-.728,1.768-1.534.857-3.012-.41-.666-1.373-1.283-.465-2.11.771-.7,1.677-.354,2.518.111.655.363,1.362.63,2.047.938.564.4,1.3.428,1.854.857,4.03,2.062,8.333,3.565,12.186,5.988a5.081,5.081,0,0,1,1.38.845Z" transform="translate(-4.242 -356.769)" fill="#39ca33" stroke="#191919" stroke-width="1"/>
</svg>
